<?xml version="1.0" encoding="UTF-8" standalone="no"?>
<!-- Created with Inkscape (http://www.inkscape.org/) -->

<svg
   xmlns:dc="http://purl.org/dc/elements/1.1/"
   xmlns:cc="http://creativecommons.org/ns#"
   xmlns:rdf="http://www.w3.org/1999/02/22-rdf-syntax-ns#"
   xmlns:svg="http://www.w3.org/2000/svg"
   xmlns="http://www.w3.org/2000/svg"
   xmlns:sodipodi="http://sodipodi.sourceforge.net/DTD/sodipodi-0.dtd"
   xmlns:inkscape="http://www.inkscape.org/namespaces/inkscape"
   width="256"
   height="256"
   viewBox="0 0 67.733332 67.733335"
   version="1.1"
   id="svg5670"
   inkscape:version="0.92.1 r15371"
   sodipodi:docname="icon.svg">
  <defs
     id="defs5664" />
  <sodipodi:namedview
     id="base"
     pagecolor="#ffffff"
     bordercolor="#666666"
     borderopacity="1.0"
     inkscape:pageopacity="0.0"
     inkscape:pageshadow="2"
     inkscape:zoom="1.4"
     inkscape:cx="110.77739"
     inkscape:cy="123.63881"
     inkscape:document-units="mm"
     inkscape:current-layer="layer1"
     showgrid="false"
     units="px"
     inkscape:window-width="1280"
     inkscape:window-height="961"
     inkscape:window-x="-8"
     inkscape:window-y="-8"
     inkscape:window-maximized="1" />
  <metadata
     id="metadata5667">
    <rdf:RDF>
      <cc:Work
         rdf:about="">
        <dc:format>image/svg+xml</dc:format>
        <dc:type
           rdf:resource="http://purl.org/dc/dcmitype/StillImage" />
        <dc:title></dc:title>
      </cc:Work>
    </rdf:RDF>
  </metadata>
  <g
     inkscape:label="Layer 1"
     inkscape:groupmode="layer"
     id="layer1"
     transform="translate(0,-229.26665)">
    <g
       aria-label=".CLX"
       transform="matrix(0.16033525,0,0,0.16033525,-0.82268744,242.40912)"
       style="font-style:normal;font-weight:normal;font-size:40px;line-height:1.25;font-family:sans-serif;letter-spacing:0px;word-spacing:0px;fill:#000000;fill-opacity:1;stroke:none"
       id="flowRoot5048">
      <path
         inkscape:connector-curvature="0"
         d="m 51.839844,184.31 h -22.40625 v -26.71875 h 22.40625 z"
         style="font-style:normal;font-variant:normal;font-weight:normal;font-stretch:normal;font-family:sans-serif;-inkscape-font-specification:sans-serif"
         id="path5064" />
      <path
         inkscape:connector-curvature="0"
         d="m 167.71484,85.403749 v -5.53125 q 0,-2.8125 1.03125,-4.03125 1.125,-1.21875 2.90625,-1.21875 1.78125,0 2.8125,1.21875 1.125,1.21875 1.125,4.03125 v 21.843751 q 0,2.90625 -1.125,4.125 -1.03125,1.21875 -2.8125,1.21875 -1.59375,0 -2.71875,-1.125 -1.03125,-1.125 -1.21875,-3.65625 -0.46875,-7.875001 -8.53125,-13.968751 -10.875,-8.34375 -24.75,-8.34375 -9.09375,0 -17.15625,4.03125 -6,2.90625 -9.5625,7.125 -6.1875,7.3125 -9.843746,16.218751 -2.625,6.5625 -2.625,14.8125 V 135.935 q 0,17.625 12.749996,30.65625 12.75,12.9375 29.625,12.9375 10.125,0 18.09375,-4.40625 8.0625,-4.40625 15.5625,-13.3125 1.59375,-1.96875 3.5625,-1.96875 1.6875,0 2.71875,1.03125 1.03125,1.03125 1.03125,2.625 0,2.15625 -4.03125,6.5625 -7.6875,8.625 -17.34375,13.03125 -9.5625,4.3125 -19.40625,4.3125 -8.53125,0 -17.34375,-3.28125 -6.75,-2.53125 -11.15625,-5.90625 -4.40625,-3.375 -10.874996,-11.34375 -6.375,-8.0625 -8.71875,-14.8125 -2.34375,-6.84375 -2.34375,-15 v -16.03125 q 0,-11.625 6.1875,-23.718751 6.28125,-12.1875 17.062496,-18.65625 10.875,-6.5625 23.53125,-6.5625 19.5,0 33.5625,13.3125 z"
         style="font-style:normal;font-variant:normal;font-weight:normal;font-stretch:normal;font-size:192px;font-family:monospace;-inkscape-font-specification:monospace"
         id="path5066" />
      <path
         inkscape:connector-curvature="0"
         d="M 234.55859,82.497499 V 176.435 h 52.3125 v -31.3125 q 0,-2.8125 1.125,-4.03125 1.125,-1.21875 2.90625,-1.21875 1.6875,0 2.8125,1.21875 1.125,1.125 1.125,4.03125 V 184.31 h -87 q -2.8125,0 -4.03125,-1.125 -1.21875,-1.125 -1.21875,-2.8125 0,-1.78125 1.21875,-2.8125 1.21875,-1.125 4.03125,-1.125 h 18.75 V 82.497499 h -18.75 q -2.8125,0 -4.03125,-1.03125 -1.21875,-1.125 -1.21875,-2.90625 0,-1.78125 1.21875,-2.8125 1.21875,-1.125 4.03125,-1.125 h 45.46875 q 2.8125,0 4.03125,1.125 1.21875,1.03125 1.21875,2.8125 0,1.78125 -1.21875,2.90625 -1.21875,1.03125 -4.03125,1.03125 z"
         style="font-style:normal;font-variant:normal;font-weight:normal;font-stretch:normal;font-size:192px;font-family:monospace;-inkscape-font-specification:monospace"
         id="path5068" />
      <path
         inkscape:connector-curvature="0"
         d="m 368.05859,128.15375 37.40625,48.28125 h 3 q 2.8125,0 4.03125,1.125 1.21875,1.03125 1.21875,2.8125 0,1.6875 -1.21875,2.8125 -1.21875,1.125 -4.03125,1.125 h -25.3125 q -2.8125,0 -4.03125,-1.125 -1.21875,-1.125 -1.21875,-2.8125 0,-1.78125 1.21875,-2.8125 1.21875,-1.125 4.03125,-1.125 h 12.5625 l -32.53125,-41.8125 -32.15625,41.8125 h 12.5625 q 2.8125,0 4.03125,1.125 1.21875,1.03125 1.21875,2.8125 0,1.6875 -1.21875,2.8125 -1.21875,1.125 -4.03125,1.125 h -25.125 q -2.8125,0 -4.03125,-1.125 -1.21875,-1.125 -1.21875,-2.8125 0,-1.3125 0.75,-2.34375 0.75,-1.03125 1.6875,-1.3125 0.9375,-0.28125 5.71875,-0.28125 l 36.9375,-48.28125 -35.25,-45.656251 h -2.90625 q -2.8125,0 -4.03125,-1.03125 -1.21875,-1.125 -1.21875,-2.90625 0,-1.78125 1.21875,-2.8125 1.21875,-1.125 4.03125,-1.125 h 21.46875 q 2.90625,0 4.125,1.125 1.21875,1.03125 1.21875,2.8125 0,1.78125 -1.21875,2.90625 -1.21875,1.03125 -4.125,1.03125 h -8.8125 l 30.375,39.281251 30.1875,-39.281251 h -8.8125 q -2.90625,0 -4.125,-1.03125 -1.21875,-1.125 -1.21875,-2.90625 0,-1.78125 1.21875,-2.8125 1.21875,-1.125 4.125,-1.125 h 21.5625 q 2.8125,0 4.03125,1.125 1.21875,1.03125 1.21875,2.8125 0,1.78125 -1.21875,2.90625 -1.21875,1.03125 -4.03125,1.03125 h -3 z"
         style="font-style:normal;font-variant:normal;font-weight:normal;font-stretch:normal;font-size:192px;font-family:monospace;-inkscape-font-specification:monospace"
         id="path5070" />
    </g>
    <rect
       style="opacity:0.99199997;fill:#ffffff;fill-opacity:0.63468634;stroke:#282828;stroke-width:0.4742187;stroke-miterlimit:4;stroke-dasharray:none;stroke-dashoffset:0;stroke-opacity:1"
       id="rect5062"
       width="66.904549"
       height="67.091431"
       x="0.39667541"
       y="229.54657" />
  </g>
</svg>
